<svg xmlns="http://www.w3.org/2000/svg" viewBox="0 0 302 290.77"><path d="M199.84 290.77c-16.96 0-37.03-9.07-49.07-16.83-.33-.21-.71-.32-1.08-.32s-.74.1-1.07.31c-11.7 7.37-31.21 15.97-47.69 15.97-8.67 0-15.39-2.35-19.99-6.99-4.63-4.68-6.95-11.57-6.87-20.48.05-2.69-.11-4.6-.48-5.66-.27-.78-.99-1.31-1.81-1.34h-.16c-1.22 0-2.99.41-5.57 1.29-4.11 1.33-7.99 2.01-11.5 2.01-7.47 0-13.5-2.97-17.91-8.83-9.96-13.24-9.66-41.24-4.21-62.05.2-.75-.06-1.55-.66-2.05-8.93-7.39-17.36-17.02-23.13-26.41-4.8-7.81-10.13-19.27-8.25-29.45 1.63-8.88 8.13-15.14 19.3-18.62 2.5-.75 4.25-1.49 5.2-2.18a2 2 0 0 0 .74-2.19c-.34-1.13-1.34-2.82-2.99-5.02-7.02-9.49-8.56-18.45-4.58-26.62 4.93-10.11 17.07-16.34 26.39-19.79 9.97-3.69 22.42-6.25 33.31-6.85a1.99 1.99 0 0 0 1.75-1.26c1.61-4.02 7.64-18.09 17.8-30.26C103.78 9.36 113.98.1 125.78.1c7.8 0 14.81 4.3 20.82 12.79 1.51 2.17 2.76 3.61 3.7 4.28.35.25.75.37 1.16.37s.8-.12 1.14-.36c.97-.67 2.27-2.15 3.85-4.39 6.06-8.49 13.09-12.8 20.89-12.8 11.31 0 21.52 9.22 28.09 16.96 7.38 8.69 14.37 20.57 18.7 31.79.28.73.96 1.23 1.74 1.28 11.57.73 24.04 3.57 34.23 7.77 8.47 3.5 19.51 9.63 23.98 18.97 3.89 8.14 2.32 17.03-4.67 26.41-1.58 2.17-2.49 3.53-2.86 4.57-.25.71-.08 1.51.45 2.06 1.43 1.48 3.91 2.31 6.78 3.27 5.93 1.99 12.65 4.24 16.45 13.13 8.16 23.73-13.82 46.59-31.07 61.73-.56.5-.8 1.26-.62 1.99 2.64 10.49 3.84 22.05 3.37 32.54-.38 8.57-2.09 20.42-8.05 28.25-4.4 5.78-10.38 8.72-17.76 8.72-3.52 0-7.39-.68-11.5-2.03-2.57-.89-4.27-1.29-5.47-1.29-.87 0-1.68.56-1.95 1.38-.37 1.13-.54 3.13-.51 5.77.04 8.96-2.3 15.88-6.95 20.55-4.59 4.61-11.28 6.95-19.89 6.95Zm49.73-88.75c-.33 0-.67.08-.97.25-15.36 8.52-36.45 13.03-49.55 13.62-.79.04-1.48.53-1.77 1.26-4.93 12.37-15.66 30.08-28.51 41.73-.49.44-.73 1.1-.64 1.75s.49 1.22 1.08 1.52c8.61 4.36 21.68 9.46 30.16 9.46 3.27 0 5.56-.72 6.8-2.15 1.11-1.27 1.5-3.26 1.14-5.91-.58-8.04 1.62-15.14 6.19-20.04 4.1-4.39 9.84-6.82 16.19-6.82 3.62 0 7.33.78 11 2.31 2.28.83 3.95 1.22 5.17 1.22 2.65 0 3.48-2.15 5.48-8.38l.04-.13s.03-.1.04-.15c1.74-7.37 1.78-17.26.11-27.84-.1-.64-.51-1.2-1.1-1.49-.28-.14-.58-.2-.88-.2ZM71.13 236c6.38 0 12.15 2.45 16.25 6.9 4.55 4.94 6.71 11.92 6.09 19.64-.16 4.69.6 6.03 1.18 6.64.94.97 2.74 1.29 7.39 1.29h1.66c.05 0 .11 0 .16-.01 7.54-.63 16.96-3.65 26.53-8.51.58-.3.98-.86 1.07-1.5.09-.65-.14-1.3-.62-1.74-12.85-11.95-23.67-30.62-28.28-42.9-.28-.74-.96-1.24-1.74-1.29-13.29-.87-33.46-5.6-48.55-14.22-.31-.18-.65-.26-.99-.26-.29 0-.59.06-.86.2-.59.28-1.01.84-1.11 1.48-1.77 10.89-2.58 29.4 2.42 35.73 1.46 1.85 2.97 2.06 3.98 2.06 1.19 0 2.57-.38 4.1-1.12 3.89-1.58 7.69-2.37 11.33-2.37Zm79.32-30.55c-.54 0-1.05.22-1.43.6-5.88 6.01-13.81 9.34-22.31 9.38-.69 0-1.33.36-1.7.95-.36.59-.39 1.33-.08 1.95 5.75 11.41 14.59 22.67 23.66 30.12a1.986 1.986 0 0 0 2.52.02c9.2-7.38 18.16-18.43 23.97-29.54a2 2 0 0 0-1.64-2.92c-6.08-.42-15.36-3.26-21.53-9.91-.37-.4-.89-.63-1.44-.64h-.03Zm-20.75-39.88c-.18 0-.36.02-.53.07-9.04 2.49-15.62 7.83-17.17 13.95-.82 3.22-.58 8.11 5.19 13.14.07.06.14.12.22.17 3.21 2.1 6.35 3.17 9.34 3.17 3.63 0 6.75-1.51 9.29-4.48 3.59-4.22 5.26-10.76 4.56-17.95-.07-.71-.51-1.33-1.16-1.63a28.2 28.2 0 0 1-8.31-5.83c-.38-.39-.9-.6-1.43-.6Zm42.07.26c-.52 0-1.03.2-1.41.58-2.35 2.32-5.25 4.27-8.37 5.64-.69.3-1.15.96-1.2 1.7-.61 9.33 2.2 14.6 4.67 17.39 2.71 3.05 6.4 4.73 10.41 4.73 2.46 0 4.87-.65 6.97-1.88.08-.05.16-.1.24-.17 5.3-4.26 7.41-9.23 6.1-14.37-1.64-6.42-7.98-11.49-16.96-13.57-.15-.04-.3-.05-.45-.05m51.81-17.95c-.12 0-.25.01-.37.03-.66.12-1.21.57-1.47 1.19-2.95 6.98-8.46 12.62-15.5 15.87-.5.23-.88.66-1.06 1.18s-.13 1.09.13 1.58c4.03 7.61 4.7 16.68 1.85 24.89-.23.67-.09 1.4.36 1.94.38.46.95.71 1.53.71.11 0 .21 0 .32-.03 12.24-2 25.32-6.87 34.98-13.03.8-.51 1.13-1.51.79-2.4-4.21-11.05-11.55-22.46-20.13-31.32-.38-.39-.9-.61-1.44-.61Zm-145.53-1.7c-.53 0-1.04.21-1.42.59-8.7 8.78-16.41 20.4-20.63 31.09-.35.88-.03 1.89.77 2.41 9.83 6.42 22.42 11.34 34.57 13.49a2.018 2.018 0 0 0 1.85-.64c.46-.52.62-1.25.42-1.91-2.42-7.93-1.48-16.69 2.59-24.02.27-.48.32-1.04.16-1.57-.16-.52-.53-.96-1.02-1.2-7.83-3.86-13.09-11.31-15.42-17a2.02 2.02 0 0 0-1.85-1.25Zm155.24-75.73c-.54 0-1.05.21-1.43.6a1.98 1.98 0 0 0-.53 1.78c3.35 17.23 1.13 38.69-2.36 51.33-.21.76.04 1.57.65 2.07 10.24 8.52 23.78 24.2 30.92 40.04.27.59.81 1.02 1.45 1.14.12.02.25.04.37.04a2 2 0 0 0 1.4-.57c8.05-7.86 14.16-16.21 17.21-23.49.02-.04.13-.36.13-.36 1.69-5.16 2.3-7.4 1.53-8.85-.43-.81-1.49-1.91-5.92-3.18-9.42-2.35-16.21-8.13-18.67-15.88-2.47-7.77-.36-16.33 5.81-23.48 2.35-2.47 3.1-4.67 2.33-6.75-2.6-7-20.9-12.45-32.56-14.41q-.165-.03-.33-.03M70.08 69.09c-.1 0-.21 0-.31.02-12.72 2-28.07 5.48-33.99 14.78-.28.44-.38.97-.27 1.48.4 1.92 1.84 3.96 3.51 6.33 3.16 4.48 7.1 10.06 5.97 18.24 0 .06-.01.11-.02.17-.62 11.93-13.66 18.52-19.51 19.7-3.29.59-5.19 1.91-5.79 4.04-.73 2.59-.11 7.78 6.96 17.8 3.02 4.28 6.99 9.02 10.91 13.03.38.39.9.6 1.43.6.11 0 .22 0 .34-.03.65-.11 1.2-.53 1.48-1.13 7.42-15.92 21.83-31.96 32.08-40.14.61-.49.88-1.29.69-2.06-3.27-12.86-5-33.45-1.51-50.44.13-.64-.06-1.31-.51-1.78-.38-.4-.91-.62-1.45-.62Zm80.96 69.66c-.56 0-1.14.05-1.73.15-5.35 1.19-6.8 5.46-6.44 8.77.38 3.59 3.01 7.46 7.86 7.46.56 0 1.15-.05 1.74-.16 5.34-1.19 6.79-5.46 6.44-8.77-.38-3.59-3.01-7.45-7.86-7.45Zm40.65-17.35c-5.89 0-11.88 3.8-16.41 10.44a2.02 2.02 0 0 0-.11 2.08c1.93 3.57 3.05 7.54 3.25 11.47.04.82.58 1.53 1.35 1.79 3.45 1.18 6.94 1.8 10.11 1.8 5.54 0 10-1.8 12.57-5.06 2.36-3 3.01-7.15 1.88-12.01-.02-.08-.04-.17-.07-.25-2.46-6.62-6.92-10.27-12.56-10.27Zm-81.94-.51c-5.06 0-9.2 3.2-11.65 9.01-.03.08-.06.16-.09.25-1.46 5.33-.9 9.92 1.63 13.26 2.57 3.4 7.14 5.35 12.54 5.35 3.14 0 6.56-.67 9.9-1.93.73-.28 1.24-.96 1.29-1.74.27-4 1.43-7.96 3.36-11.46.38-.68.32-1.52-.13-2.14-4.91-6.74-11.05-10.61-16.84-10.61Zm41.11-1.51c2.26 0 4.58.28 6.72.82a2.013 2.013 0 0 0 2.11-.76c4.98-6.85 6.38-14.37 3.74-20.12-2.05-4.47-6.26-6.94-11.83-6.94-1.2 0-2.48.12-3.78.35-.08.01-.15.03-.22.05-5.15 1.54-8.41 4.45-9.7 8.65-1.61 5.24.02 11.6 4.57 17.9.38.53.99.83 1.62.83.15 0 .31-.02.46-.05 2.02-.48 4.21-.73 6.33-.73Zm40.67-17.36c6.47 0 12.7 1.96 18.03 5.68a1.98 1.98 0 0 0 1.94.19c.64-.28 1.08-.87 1.18-1.55.87-6.15 1.18-12.02.92-17.46-.28-5.84-1.2-11.95-2.73-18.17-.22-.9-1.03-1.52-1.94-1.52h-.1c-11.53.6-23.78 3.71-34.5 8.76-.61.29-1.03.86-1.13 1.53-.09.67.15 1.34.66 1.78 5.6 4.95 9.19 11.87 10.09 19.48.07.54.35 1.04.79 1.37.35.26.77.4 1.2.4.11 0 .23 0 .34-.03 1.73-.3 3.5-.45 5.25-.45ZM94.44 68c-.9 0-1.7.61-1.93 1.5-1.73 6.65-2.76 13.21-3.06 19.48-.24 4.96 0 10.31.71 15.9.09.68.52 1.27 1.14 1.56.27.12.56.19.84.19.38 0 .76-.11 1.09-.32 4.89-3.17 10.63-4.85 16.6-4.85 2.05 0 4.12.2 6.14.6.13.03.26.04.39.04.41 0 .82-.13 1.16-.37.45-.32.75-.81.82-1.35 1.11-7.76 5.05-14.76 11.11-19.71.53-.43.8-1.1.72-1.78s-.5-1.27-1.11-1.57c-10.68-5.21-23.26-8.6-34.5-9.31h-.13Zm31.11-48.51c-1.66 0-3.72 1.45-7.53 4.23l-.24.18c-5.73 4.94-11.58 12.92-16.46 22.46-.3.58-.29 1.27.01 1.85.31.58.88.97 1.52 1.05 17.43 2.14 37.15 10.88 48.1 18.1a2 2 0 0 0 2.17.02c11.26-7.11 30.36-15.13 47.62-17.03.65-.07 1.23-.46 1.54-1.04s.32-1.27.02-1.86c-2.67-5.24-6.1-10.83-9.42-15.32-3.43-4.63-9.96-12.41-15.19-12.41-2.12 0-3.89 1.38-5.42 4.23-5.24 8.28-12.82 13-20.82 13s-15.59-4.65-20.62-12.76c-2.21-3.28-3.83-4.72-5.29-4.72Z" style="fill:#d74d74;stroke-width:0"/></svg>