<svg xmlns="http://www.w3.org/2000/svg" viewBox="0 0 1093.48 290.77"><defs><style>.cls-1{fill:#d74d74;stroke-width:0}</style></defs><g><path d="M449.46 95.72c.84.9 2.24.94 3.15.12 23.88-21.74 55.93-37.97 72.41-27.64 2.3 1.44 4.28 3.45 6.01 6.1.64.99 1.93 1.32 2.97.75l13.64-7.57c1.13-.62 1.49-2.07.81-3.16-3.43-5.54-7.72-9.95-12.77-13.12-23.19-14.54-60.99-2.78-96.74 29.95a2.25 2.25 0 0 0-.12 3.19l10.64 11.37ZM357.28 50.82l14.05 5.94c.85.36 1.89.21 2.49-.49.09-.1.18-.2.28-.28 2.47-2.13 11.39-1.85 23.14 5.13 1.03.61 2.37.29 3.02-.73l8.1-12.69c.67-1.05.36-2.47-.71-3.11-18.32-11.04-35.93-12.37-46.32-3.37-2.07 1.8-3.8 3.97-5.16 6.49-.62 1.15-.09 2.59 1.12 3.11ZM550 125.06c1.23.08 2.29-.84 2.38-2.07l1.14-15.53c.09-1.24-.84-2.33-2.09-2.41-4.03-.26-8.09-.4-12.1-.45-22.78-.24-45.61 3.02-67.97 9.65-.39-3.66-.84-7.38-1.4-11.19a2.252 2.252 0 0 0-2.57-1.89L452 103.55a2.244 2.244 0 0 0-1.87 2.55c9.78 66.84-9.07 108.05-26.73 130.93-3.24 4.19-6.78 8.23-10.56 12.03-.87.87-.89 2.27-.03 3.15l10.86 11.17c.87.89 2.31.92 3.19.03 4.45-4.45 8.62-9.2 12.42-14.13 17-22.03 35.02-58.75 33.49-114.47 7.96-2.53 15.99-4.6 24.06-6.19 10.58 58.54 8.37 108.08-5.35 113.95-.98.42-2.09.63-3.36.63-1.11 0-2.03.85-2.17 1.95l-1.98 15.52c-.16 1.28.79 2.45 2.08 2.53.67.04 1.34.06 2 .06 4.03 0 7.82-.75 11.32-2.25 17.85-7.63 25.67-32.58 23.91-76.27-.97-23.99-4.63-47.63-6.61-59.04 7.49-.75 14.99-1.1 22.48-1.03 3.6.04 7.25.17 10.87.4Z" class="cls-1"/><path d="M416.27 207.35c11.53-1.54 20.41-12.33 27.1-32.95a2.24 2.24 0 0 0-1.48-2.82l-12.68-3.89c-1.17-.36-2.41.29-2.79 1.45-6.26 19.24-11.87 20.54-12.5 20.62-2.05.25-5.79-3.66-9.09-7.14-2.72-2.86-5.81-6.1-9.48-8.8l-.33-16.68c5.65-.85 11.32-1.54 17-2.06 8.92-.81 17.99-1.22 26.98-1.22 1.23 0 2.23-.98 2.24-2.21l.1-13.26c0-1.24-.99-2.27-2.24-2.27-9.56 0-19.21.43-28.7 1.29-5.26.48-10.5 1.09-15.74 1.84l-.18-9.2c9.41-2.14 20.22-4.79 32.4-7.93 1.2-.31 1.93-1.54 1.62-2.74l-3.78-14.56a2.243 2.243 0 0 0-2.74-1.6c-19.06 4.92-33 8.16-43.19 10.28 1.14-.76 2.34-1.54 3.59-2.37 11.52-7.56 20.48-13.12 27.01-17.17 6-3.72 9.96-6.18 12.73-8.19 2.3-1.67 9.31-6.73 6.82-14.63-3.3-10.47-16.89-8.59-27.81-7.08-13.8 1.91-35.82 6.38-65.49 13.3a2.24 2.24 0 0 0-1.68 2.7l3.43 14.64a2.25 2.25 0 0 0 2.7 1.67c12.79-2.98 23.44-5.34 32.31-7.2 2.43-.51 3.75 2.72 1.68 4.07-.79.51-1.58 1.03-2.39 1.57-13.2 8.66-21.92 14.77-26.65 18.69-3.02 2.5-9.31 7.71-6.61 15.27 2.32 6.47 8.6 8.12 15.23 8.12 3.97 0 8.06-.59 11.5-1.08 2.98-.43 6.37-1.01 10.14-1.72l.17 8.51c-16.3 3.36-32.4 8-48.17 13.92a2.242 2.242 0 0 0-1.3 2.91l4.74 12.38a2.237 2.237 0 0 0 2.88 1.29c13.83-5.19 27.94-9.34 42.21-12.44l.14 7.36c-14.21 1.27-35.93 14.69-70.74 72.92-.64 1.06-.29 2.45.78 3.09l11.41 6.76c1.06.63 2.44.27 3.07-.79 15.75-26.36 29.69-44.97 41.43-55.34 4.1-3.62 9.52-7.61 14.41-8.66l1.52 77.45a2.243 2.243 0 0 0 2.28 2.2l14.78-.29a2.243 2.243 0 0 0 2.2-2.28l-1.26-64.29c5.25 5.08 11.69 9.73 20.44 8.56ZM921.68 143.51c3.75-4.09 7.13-7.93 10.2-11.52 9.26-2.21 20.54-5.58 34.12-10.2a2.25 2.25 0 0 0 1.4-2.85l-3.88-11.28a2.245 2.245 0 0 0-2.85-1.39c-4.1 1.39-7.88 2.64-11.38 3.75.15-.21.31-.43.45-.63 16.99-23.79 21.49-39.41 14.16-49.15-6.84-9.08-20.7-10.06-44.81-3.1-1.19.34-1.87 1.61-1.52 2.8L921 71.37a2.242 2.242 0 0 0 2.76 1.51c22.45-6.45 26.96-2.82 26.98-2.82.03.06 2.37 6.71-15.28 31.06-2.87 3.96-7.02 9.41-12.58 16.1-2.55.53-4.7.9-6.5 1.15-1.95.27-3.26-1.96-2.1-3.55.12-.16.23-.31.33-.46 5.36-7.35 12.03-16.49 7.72-25.55-2.27-4.76-6.67-7.81-13.75-9.19.75-1.49 1.48-3 2.18-4.52 5.96-12.88 10.22-26.57 12.67-40.71a2.24 2.24 0 0 0-1.87-2.59l-11.78-1.88c-1.21-.19-2.34.63-2.55 1.84-2.21 12.67-6.03 24.92-11.36 36.45a144.43 144.43 0 0 1-5.65 10.91c-8.56.68-18.98 2.37-31.51 5.04a2.242 2.242 0 0 0-1.72 2.67l2.54 11.66a2.25 2.25 0 0 0 2.65 1.72c6.03-1.28 11.28-2.26 15.85-3-8.56 10.88-18.69 20.7-30.14 29.12-.99.73-1.22 2.11-.51 3.11l6.94 9.71c.72 1.01 2.15 1.25 3.15.51 16.85-12.37 31.14-27.5 42.18-44.51 1.7.03 3.07.12 4.17.26 1.61.2 2.47 2.03 1.6 3.4-1.28 2.05-2.95 4.34-4.08 5.88-5.22 7.15-11.13 15.26-6.67 23.27 2.64 4.74 7.59 6.53 12.48 7.06-20.89 22.28-45.32 41.48-72.71 57.1a2.24 2.24 0 0 0-.85 3.04l5.84 10.41a2.252 2.252 0 0 0 3.07.86c29.94-17.06 56.55-38.2 79.17-62.89ZM1092.04 170.58c-21.63-8.22-59.47-27.71-84.76-69.21-11.75-19.28-19.25-40.64-22.31-63.52a2.24 2.24 0 0 0-2.48-1.94l-14.44 1.74a2.24 2.24 0 0 0-1.96 2.52c3.39 25.58 11.78 49.49 24.95 71.1 28.28 46.39 70.43 68.06 94.42 77.16 1.17.44 2.47-.16 2.9-1.33l4.99-13.66c.42-1.15-.15-2.42-1.3-2.86Z" class="cls-1"/><path d="M1029.29 174.17a2.248 2.248 0 0 0 1.23-2.94l-4.57-11.02c-.47-1.14-1.78-1.67-2.92-1.21-17.49 7.05-33.2 10.79-46.99 11.25-2.11.07-3.12-2.58-1.52-3.95 23.14-19.84 19.58-27.31 18.06-30.49-4.16-8.72-16.41-6.88-22.3-6-9.24 1.38-22.29 4.7-39.83 10.11a2.25 2.25 0 0 0-1.48 2.81l3.55 11.39a2.234 2.234 0 0 0 2.8 1.47c13.04-4.02 22.4-6.49 29.09-7.98 2.26-.5 3.7 2.32 1.98 3.86-4.37 3.91-10 8.51-16.85 13.54-.64.47-1.48.57-2.2.26-.31-.13-.62-.26-.94-.4-7.77-3.29-19.52-8.27-31.86-3.23-11.84 4.83-20.09 17.48-22.11 27.47-1.5 7.37.82 11.55 3.02 13.77 2.49 2.5 5.62 3.49 9.08 3.49 5.71 0 12.34-2.68 18.53-5.66 7.89-3.8 17.47-9.48 27.33-16.2.53-.36 1.18-.47 1.8-.32 1.93.49 3.92.88 5.93 1.22 6.89 31.09 2.09 55.35-12.82 62.74-1.89.94-4 1.64-6.31 2.09a2.244 2.244 0 0 0-1.8 2.48l1.52 11.85c.16 1.28 1.37 2.15 2.64 1.92 4.05-.72 7.83-1.95 11.25-3.64 21.35-10.59 29.57-39.24 22.53-76.23 16.19-.31 34.28-4.45 54.17-12.47Zm-102.54 5.95c-3.85 2.26-7.23 4.06-10.12 5.48-2.17 1.06-4.27-1.59-2.72-3.44 1.88-2.25 4.19-4.23 6.84-5.31 1.55-.63 3.19-.9 4.87-.9h.06c2.24 0 3 3.04 1.07 4.17Z" class="cls-1"/><path d="m943.75 214.76-9.9-6.65a2.251 2.251 0 0 0-3.09.59 82.982 82.982 0 0 1-22.03 21.3c-9.06 5.99-19.44 10.21-30.14 12.29-1.2.23-2.01 1.36-1.81 2.57l1.96 11.78c.21 1.23 1.38 2.08 2.61 1.84 12.93-2.46 25.48-7.55 36.43-14.78 10.44-6.9 19.37-15.56 26.57-25.79.72-1.02.44-2.44-.6-3.14ZM1055.83 220.83c-4.34-1.97-8.78-3.79-13.23-5.42-16.6-6.07-34.11-9.81-52.09-11.11-1.24-.09-2.32.87-2.4 2.11l-.72 11.91c-.07 1.23.85 2.27 2.08 2.36 16.41 1.2 32.37 4.61 47.49 10.14 4.01 1.47 8.02 3.11 11.93 4.88 1.12.51 2.44.03 2.96-1.08l5.07-10.8c.53-1.13.04-2.48-1.09-2.99ZM998.69 64.15c.41 1.27 1.85 1.9 3.06 1.34 13.84-6.31 23.53-6.95 27.11-6.07.9.22 1.57 1.01 1.64 1.93.36 4.53-3.39 17.22-17.28 32.14-.67.72-.82 1.8-.32 2.66.55.94 1.1 1.89 1.67 2.82 1.63 2.67 3.31 5.24 5.04 7.72.79 1.14 2.45 1.29 3.42.29 21.14-21.6 29.63-45.7 19.71-57.53-6.09-7.26-21.28-10.63-46.07.3-.99.43-1.53 1.53-1.28 2.57.95 3.99 2.06 7.93 3.3 11.81ZM711.9 127.45c1.96 1.46 7.27 4.25 14.21-1.21 1.96-1.54 4.01-3.62 6.61-6.26 6.9-7 17.32-17.58 32.65-24.06 11.89-5.02 23.03-6.66 27.77-5.97 1.16.17 1.97 1.26 1.84 2.43-.52 4.68-4.65 15.73-17.8 30.74-.81.93-.74 2.33.17 3.15l9.84 8.89c.92.84 2.36.76 3.18-.17 15.35-17.51 28.16-40.39 19.59-54.04-10.92-17.39-44.82-4.19-51.5-1.36-10.32 4.36-18.73 10.18-25.43 15.78 1.65-3.7 3.53-7.69 5.6-11.84 6.96-13.89 15.2-27.1 24.51-39.28.75-.98.58-2.37-.4-3.12l-10.46-8.15c-.98-.77-2.41-.59-3.16.4-10.02 13.09-18.88 27.28-26.36 42.21-4.33 8.64-8.51 18.1-11.18 25.29-3.88 10.45-7.05 21.12.31 26.59Z" class="cls-1"/><path d="M764.13 122.46c-.13-1.25-1.27-2.13-2.51-1.98l-13.16 1.68a2.231 2.231 0 0 0-1.95 2.44c1.5 14.54 5.42 79.77-40.78 109.59-6.99 4.51-14.89 8.06-23.51 10.57-1.18.34-1.88 1.55-1.56 2.73l3.42 12.81a2.242 2.242 0 0 0 2.77 1.59c10.4-2.99 19.98-7.28 28.5-12.79 24.52-15.82 40.74-42.1 46.91-76 4.11-22.55 2.75-42.47 1.87-50.65Z" class="cls-1"/><path d="M711.94 207.87c.83-.93.73-2.37-.21-3.18L701.72 196c-.93-.81-2.33-.7-3.15.22-13.13 14.78-26.16 24.88-37.18 30.91 8.74-9.67 15.54-17.7 20.3-23.99 7.18-9.48 13.4-19.04 7.32-26.18-2.65-3.11-6.97-3.41-11.13-2.87 13.39-12.26 20.81-20.61 16.17-28.27-4.33-7.15-12.77-5.01-22.65-2.02 3.4-3.52 8.48-8.44 15.23-14.51.92-.82.99-2.24.17-3.16l-7.51-8.47a2.236 2.236 0 0 0-3.17-.18c-25.88 23.21-31.87 32.63-26.53 40.77 3.87 5.9 11.38 4.51 19.29 2.45-2.83 2.61-6.83 6.01-9.17 8.1-4.9 4.38-9.25 8.23-12.65 11.65-3.48 3.51-9.96 10.04-5.47 16.78 4.22 6.34 11.95 3.39 14.49 2.42 2.87-1.09 6.33-2.73 10.01-4.46.65-.31 1.66-.93 2.44-1.3-5.79 7.46-16.54 19.94-34.37 38.78-9.63-6.47-13.84-43.37 11.91-90.77.1-.19.17-.39.21-.59 9.24-11.28 17.74-22.59 24.58-32.83l.48-.72c8.73-2.57 17.54-4.73 26.43-6.44 2.84-.55 5.72-1.06 8.6-1.52 1.22-.2 2.05-1.33 1.86-2.55l-2-13.11a2.243 2.243 0 0 0-2.57-1.88c-3.09.49-6.19 1.04-9.24 1.63-3.5.67-6.98 1.43-10.45 2.23 6.24-13.24 6.51-21.82 1.24-27.32-8.56-8.91-22.95-1.55-39.61 6.99-3.37 1.73-7.84 4.02-11.95 5.9-1.93.88-3.89-1.16-2.94-3.04 2.61-5.14 7.06-12.68 14.66-23.59.7-1.01.46-2.4-.55-3.11l-10.84-7.64a2.247 2.247 0 0 0-3.13.55c-21.19 30.37-26.03 45.01-17.89 53.73 8.76 9.38 23.57 1.79 40.72-6.99 3.1-1.59 7.16-3.67 10.97-5.44 1.91-.89 3.88 1.11 2.97 3-1.66 3.44-4.1 7.88-7.65 13.54-28.78 9.15-56.68 22.67-83.28 40.44-1.03.69-1.31 2.1-.61 3.13l7.44 10.98a2.242 2.242 0 0 0 3.1.6c17.94-11.98 36.48-21.91 55.48-29.76-10.55 13.74-22.77 28.02-34.98 40.79a456.305 456.305 0 0 1-56.33 49.9c-.99.74-1.19 2.13-.46 3.12l7.89 10.66c.74 1 2.15 1.21 3.15.47a475.808 475.808 0 0 0 51.43-44.58c-2.05 8.42-3.31 16.62-3.7 24.39-1.09 22.02 4.88 38.55 16.37 45.35 4.08 2.41 8.9 3.57 14.25 3.57 20.12 0 47.8-16.34 72.23-43.86ZM796.46 214.1c-8.5-7.15-18.05-12.82-28.42-16.96-1.22-.49-2.59.21-2.96 1.48-1.26 4.24-2.69 8.34-4.3 12.28-.47 1.16.08 2.47 1.25 2.94a86.03 86.03 0 0 1 23.02 13.84c13.68 11.5 21.13 25.07 25.07 35.07.45 1.13 1.71 1.7 2.85 1.28l12.46-4.56a2.24 2.24 0 0 0 1.32-2.92c-4.7-12.03-13.67-28.49-30.29-42.46ZM199.84 290.77c-16.96 0-37.03-9.07-49.07-16.83-.33-.21-.71-.32-1.08-.32s-.74.1-1.07.31c-11.7 7.37-31.21 15.97-47.69 15.97-8.67 0-15.39-2.35-19.99-6.99-4.63-4.68-6.95-11.57-6.87-20.48.05-2.69-.11-4.6-.48-5.66-.27-.78-.99-1.31-1.81-1.34h-.16c-1.22 0-2.99.41-5.57 1.29-4.11 1.33-7.99 2.01-11.5 2.01-7.47 0-13.5-2.97-17.91-8.83-9.96-13.24-9.66-41.24-4.21-62.05.2-.75-.06-1.55-.66-2.05-8.93-7.39-17.36-17.02-23.13-26.41-4.8-7.81-10.13-19.27-8.25-29.45 1.63-8.88 8.13-15.14 19.3-18.62 2.5-.75 4.25-1.49 5.2-2.18a2 2 0 0 0 .74-2.19c-.34-1.13-1.34-2.82-2.99-5.02-7.02-9.49-8.56-18.45-4.58-26.62 4.93-10.11 17.07-16.34 26.39-19.79 9.97-3.69 22.42-6.25 33.31-6.85a1.99 1.99 0 0 0 1.75-1.26c1.61-4.02 7.64-18.09 17.8-30.26C103.78 9.36 113.98.1 125.78.1c7.8 0 14.81 4.3 20.82 12.79 1.51 2.17 2.76 3.61 3.7 4.28.35.25.75.37 1.16.37s.8-.12 1.14-.36c.97-.67 2.27-2.15 3.85-4.39 6.06-8.49 13.09-12.8 20.89-12.8 11.31 0 21.52 9.22 28.09 16.96 7.38 8.69 14.37 20.57 18.7 31.79.28.73.96 1.23 1.74 1.28 11.57.73 24.04 3.57 34.23 7.77 8.47 3.5 19.51 9.63 23.98 18.97 3.89 8.14 2.32 17.03-4.67 26.41-1.58 2.17-2.49 3.53-2.86 4.57-.25.71-.08 1.51.45 2.06 1.43 1.48 3.91 2.31 6.78 3.27 5.93 1.99 12.65 4.24 16.45 13.13 8.16 23.73-13.82 46.59-31.07 61.73-.56.5-.8 1.26-.62 1.99 2.64 10.49 3.84 22.05 3.37 32.54-.38 8.57-2.09 20.42-8.05 28.25-4.4 5.78-10.38 8.72-17.76 8.72-3.52 0-7.39-.68-11.5-2.03-2.57-.89-4.27-1.29-5.47-1.29-.87 0-1.68.56-1.95 1.38-.37 1.13-.54 3.13-.51 5.77.04 8.96-2.3 15.88-6.95 20.55-4.59 4.61-11.28 6.95-19.89 6.95Zm49.73-88.75c-.33 0-.67.08-.97.25-15.36 8.52-36.45 13.03-49.55 13.62-.79.04-1.48.53-1.77 1.26-4.93 12.37-15.66 30.08-28.51 41.73-.49.44-.73 1.1-.64 1.75s.49 1.22 1.08 1.52c8.61 4.36 21.68 9.46 30.16 9.46 3.27 0 5.56-.72 6.8-2.15 1.11-1.27 1.5-3.26 1.14-5.91-.58-8.04 1.62-15.14 6.19-20.04 4.1-4.39 9.84-6.82 16.19-6.82 3.62 0 7.33.78 11 2.31 2.28.83 3.95 1.22 5.17 1.22 2.65 0 3.48-2.15 5.48-8.38l.04-.13s.03-.1.04-.15c1.74-7.37 1.78-17.26.11-27.84-.1-.64-.51-1.2-1.1-1.49-.28-.14-.58-.2-.88-.2ZM71.13 236c6.38 0 12.15 2.45 16.25 6.9 4.55 4.94 6.71 11.92 6.09 19.64-.16 4.69.6 6.03 1.18 6.64.94.97 2.74 1.29 7.39 1.29h1.66c.05 0 .11 0 .16-.01 7.54-.63 16.96-3.65 26.53-8.51.58-.3.98-.86 1.07-1.5.09-.65-.14-1.3-.62-1.74-12.85-11.95-23.67-30.62-28.28-42.9-.28-.74-.96-1.24-1.74-1.29-13.29-.87-33.46-5.6-48.55-14.22-.31-.18-.65-.26-.99-.26-.29 0-.59.06-.86.2-.59.28-1.01.84-1.11 1.48-1.77 10.89-2.58 29.4 2.42 35.73 1.46 1.85 2.97 2.06 3.98 2.06 1.19 0 2.57-.38 4.1-1.12 3.89-1.58 7.69-2.37 11.33-2.37Zm79.32-30.55c-.54 0-1.05.22-1.43.6-5.88 6.01-13.81 9.34-22.31 9.38-.69 0-1.33.36-1.7.95-.36.59-.39 1.33-.08 1.95 5.75 11.41 14.59 22.67 23.66 30.12a1.986 1.986 0 0 0 2.52.02c9.2-7.38 18.16-18.43 23.97-29.54a2 2 0 0 0-1.64-2.92c-6.08-.42-15.36-3.26-21.53-9.91-.37-.4-.89-.63-1.44-.64h-.03Zm-20.75-39.88c-.18 0-.36.02-.53.07-9.04 2.49-15.62 7.83-17.17 13.95-.82 3.22-.58 8.11 5.19 13.14.07.06.14.12.22.17 3.21 2.1 6.35 3.17 9.34 3.17 3.63 0 6.75-1.51 9.29-4.48 3.59-4.22 5.26-10.76 4.56-17.95-.07-.71-.51-1.33-1.16-1.63a28.163 28.163 0 0 1-8.31-5.83c-.38-.39-.9-.6-1.43-.6Zm42.07.26c-.52 0-1.03.2-1.41.58-2.35 2.32-5.25 4.27-8.37 5.64-.69.3-1.15.96-1.2 1.7-.61 9.33 2.2 14.6 4.67 17.39 2.71 3.05 6.4 4.73 10.41 4.73 2.46 0 4.87-.65 6.97-1.88.08-.05.16-.1.24-.17 5.3-4.26 7.41-9.23 6.1-14.37-1.64-6.42-7.98-11.49-16.96-13.57-.15-.04-.3-.05-.45-.05Zm51.81-17.95c-.12 0-.25.01-.37.03-.66.12-1.21.57-1.47 1.19-2.95 6.98-8.46 12.62-15.5 15.87-.5.23-.88.66-1.06 1.18-.18.52-.13 1.09.13 1.58 4.03 7.61 4.7 16.68 1.85 24.89-.23.67-.09 1.4.36 1.94.38.46.95.71 1.53.71.11 0 .21 0 .32-.03 12.24-2 25.32-6.87 34.98-13.03.8-.51 1.13-1.51.79-2.4-4.21-11.05-11.55-22.46-20.13-31.32-.38-.39-.9-.61-1.44-.61Zm-145.53-1.7c-.53 0-1.04.21-1.42.59-8.7 8.78-16.41 20.4-20.63 31.09-.35.88-.03 1.89.77 2.41 9.83 6.42 22.42 11.34 34.57 13.49a2.018 2.018 0 0 0 1.85-.64c.46-.52.62-1.25.42-1.91-2.42-7.93-1.48-16.69 2.59-24.02.27-.48.32-1.04.16-1.57-.16-.52-.53-.96-1.02-1.2-7.83-3.86-13.09-11.31-15.42-17a2.017 2.017 0 0 0-1.85-1.25Zm155.24-75.73c-.54 0-1.05.21-1.43.6a1.98 1.98 0 0 0-.53 1.78c3.35 17.23 1.13 38.69-2.36 51.33-.21.76.04 1.57.65 2.07 10.24 8.52 23.78 24.2 30.92 40.04.27.59.81 1.02 1.45 1.14.12.02.25.04.37.04a2 2 0 0 0 1.4-.57c8.05-7.86 14.16-16.21 17.21-23.49.02-.04.13-.36.13-.36 1.69-5.16 2.3-7.4 1.53-8.85-.43-.81-1.49-1.91-5.92-3.18-9.42-2.35-16.21-8.13-18.67-15.88-2.47-7.77-.36-16.33 5.81-23.48 2.35-2.47 3.1-4.67 2.33-6.75-2.6-7-20.9-12.45-32.56-14.41-.11-.02-.22-.03-.33-.03ZM70.08 69.09c-.1 0-.21 0-.31.02-12.72 2-28.07 5.48-33.99 14.78-.28.44-.38.97-.27 1.48.4 1.92 1.84 3.96 3.51 6.33 3.16 4.48 7.1 10.06 5.97 18.24 0 .06-.01.11-.02.17-.62 11.93-13.66 18.52-19.51 19.7-3.29.59-5.19 1.91-5.79 4.04-.73 2.59-.11 7.78 6.96 17.8 3.02 4.28 6.99 9.02 10.91 13.03.38.39.9.6 1.43.6.11 0 .22 0 .34-.03.65-.11 1.2-.53 1.48-1.13 7.42-15.92 21.83-31.96 32.08-40.14.61-.49.88-1.29.69-2.06-3.27-12.86-5-33.45-1.51-50.44.13-.64-.06-1.31-.51-1.78-.38-.4-.91-.62-1.45-.62Zm80.96 69.66c-.56 0-1.14.05-1.73.15-5.35 1.19-6.8 5.46-6.44 8.77.38 3.59 3.01 7.46 7.86 7.46.56 0 1.15-.05 1.74-.16 5.34-1.19 6.79-5.46 6.44-8.77-.38-3.59-3.01-7.45-7.86-7.45Zm40.65-17.35c-5.89 0-11.88 3.8-16.41 10.44a2.02 2.02 0 0 0-.11 2.08c1.93 3.57 3.05 7.54 3.25 11.47.04.82.58 1.53 1.35 1.79 3.45 1.18 6.94 1.8 10.11 1.8 5.54 0 10-1.8 12.57-5.06 2.36-3 3.01-7.15 1.88-12.01-.02-.08-.04-.17-.07-.25-2.46-6.62-6.92-10.27-12.56-10.27Zm-81.94-.51c-5.06 0-9.2 3.2-11.65 9.01-.03.08-.06.16-.09.25-1.46 5.33-.9 9.92 1.63 13.26 2.57 3.4 7.14 5.35 12.54 5.35 3.14 0 6.56-.67 9.9-1.93.73-.28 1.24-.96 1.29-1.74.27-4 1.43-7.96 3.36-11.46.38-.68.32-1.52-.13-2.14-4.91-6.74-11.05-10.61-16.84-10.61Zm41.11-1.51c2.26 0 4.58.28 6.72.82a2.013 2.013 0 0 0 2.11-.76c4.98-6.85 6.38-14.37 3.74-20.12-2.05-4.47-6.26-6.94-11.83-6.94-1.2 0-2.48.12-3.78.35-.08.01-.15.03-.22.05-5.15 1.54-8.41 4.45-9.7 8.65-1.61 5.24.02 11.6 4.57 17.9.38.53.99.83 1.62.83.15 0 .31-.02.46-.05 2.02-.48 4.21-.73 6.33-.73Zm40.67-17.36c6.47 0 12.7 1.96 18.03 5.68a1.975 1.975 0 0 0 1.94.19c.64-.28 1.08-.87 1.18-1.55.87-6.15 1.18-12.02.92-17.46-.28-5.84-1.2-11.95-2.73-18.17-.22-.9-1.03-1.52-1.94-1.52h-.1c-11.53.6-23.78 3.71-34.5 8.76-.61.29-1.03.86-1.13 1.53-.09.67.15 1.34.66 1.78 5.6 4.95 9.19 11.87 10.09 19.48.07.54.35 1.04.79 1.37.35.26.77.4 1.2.4.11 0 .23 0 .34-.03 1.73-.3 3.5-.45 5.25-.45ZM94.44 68c-.9 0-1.7.61-1.93 1.5-1.73 6.65-2.76 13.21-3.06 19.48-.24 4.96 0 10.31.71 15.9.09.68.52 1.27 1.14 1.56.27.12.56.19.84.19.38 0 .76-.11 1.09-.32 4.89-3.17 10.63-4.85 16.6-4.85 2.05 0 4.12.2 6.14.6.13.03.26.04.39.04.41 0 .82-.13 1.16-.37.45-.32.75-.81.82-1.35 1.11-7.76 5.05-14.76 11.11-19.71.53-.43.8-1.1.72-1.78-.08-.68-.5-1.27-1.11-1.57-10.68-5.21-23.26-8.6-34.5-9.31h-.13Zm31.11-48.51c-1.66 0-3.72 1.45-7.53 4.23l-.24.18c-5.73 4.94-11.58 12.92-16.46 22.46-.3.58-.29 1.27.01 1.85.31.58.88.97 1.52 1.05 17.43 2.14 37.15 10.88 48.1 18.1a1.995 1.995 0 0 0 2.17.02c11.26-7.11 30.36-15.13 47.62-17.03.65-.07 1.23-.46 1.54-1.04.31-.58.32-1.27.02-1.86-2.67-5.24-6.1-10.83-9.42-15.32-3.43-4.63-9.96-12.41-15.19-12.41-2.12 0-3.89 1.38-5.42 4.23-5.24 8.28-12.82 13-20.82 13s-15.59-4.65-20.62-12.76c-2.21-3.28-3.83-4.72-5.29-4.72Z" class="cls-1"/></g></svg>
